<svg width="800" height="800" viewBox="0 0 800 800" xmlns="http://www.w3.org/2000/svg">
  <!-- Simple unicorn outline -->
  <g stroke="#333" stroke-width="2" fill="none">
    <!-- Horn -->
    <path d="M306 35 L327 90" />
    <path d="M327 90 L340 134" />
    
    <!-- Head outline -->
    <path d="M228 118 Q262 100 306 35" />
    <path d="M340 134 Q380 150 446 232" />
    <path d="M446 232 Q480 300 466 317" />
    <path d="M466 317 Q460 400 446 403" />
    
    <!-- Body -->
    <path d="M446 403 Q500 420 525 455" />
    <path d="M525 455 Q580 480 626 423" />
    <path d="M626 423 Q700 400 760 429" />
    <path d="M760 429 Q770 480 762 490" />
    <path d="M762 490 Q750 550 739 556" />
    
    <!-- Legs -->
    <path d="M676 532 Q650 580 643 680" />
    <path d="M643 680 Q640 720 658 720" />
    <path d="M602 541 Q580 600 586 749" />
    <path d="M529 771 Q500 730 496 731" />
    <path d="M443 707 Q400 680 358 714" />
    
    <!-- Mane -->
    <path d="M229 180 Q250 160 281 74" />
    <path d="M245 158 Q270 140 340 134" />
    <path d="M355 172 Q400 200 446 232" />
    
    <!-- Tail -->
    <path d="M470 543 Q450 600 410 562" />
    <path d="M410 562 Q380 580 339 529" />
  </g>
</svg>